<svg width="92" height="39" viewBox="0 0 92 39" fill="none" xmlns="http://www.w3.org/2000/svg">
<g clip-path="url(#clip0_0_75)">
<path d="M33.5066 15.776C34.3466 15.776 34.7666 15.884 34.7666 16.1C34.7666 16.34 34.3466 16.532 33.5066 16.676C32.6666 16.82 31.9466 16.892 31.3466 16.892C29.6666 23.084 28.4786 26.924 27.7826 28.412C26.0066 32.18 24.0866 34.868 22.0226 36.476C19.9586 38.084 17.9066 38.888 15.8666 38.888C13.7306 38.888 12.0626 38.144 10.8626 36.656C10.4066 36.104 10.1786 35.576 10.1786 35.072C10.2026 34.832 10.2746 34.7 10.3946 34.676C10.5866 34.676 10.8146 34.856 11.0786 35.216C11.4866 35.768 11.8346 36.2 12.1226 36.512C12.4346 36.824 12.8786 37.136 13.4546 37.448C14.0546 37.76 14.6786 37.916 15.3266 37.916C17.0306 37.916 18.6626 37.328 20.2226 36.152C21.7826 34.976 23.1146 33.476 24.2186 31.652C25.3226 29.828 26.2466 27.98 26.9906 26.108C27.7346 24.26 28.2986 22.484 28.6826 20.78C27.6746 22.724 25.7666 24.356 22.9586 25.676C20.1506 26.996 17.3186 27.656 14.4626 27.656C11.4386 27.656 9.03859 26.792 7.26259 25.064C5.48659 23.312 4.59859 21.152 4.59859 18.584C4.59859 17.072 4.86259 15.608 5.39059 14.192C5.91859 12.776 6.63859 11.504 7.55059 10.376C8.48659 9.224 9.57859 8.18 10.8266 7.244C12.0746 6.284 13.4066 5.492 14.8226 4.868C16.2626 4.22 17.7506 3.716 19.2866 3.356C20.8466 2.996 22.3826 2.816 23.8946 2.816C24.2306 2.816 24.5666 2.828 24.9026 2.852C26.6306 2.948 28.0346 3.212 29.1146 3.644C30.2186 4.076 30.9146 4.52 31.2026 4.976C31.3466 5.216 31.4186 5.432 31.4186 5.624C31.4186 5.72 31.3946 5.828 31.3466 5.948C31.2986 6.044 31.2386 6.128 31.1666 6.2C31.1186 6.248 31.0346 6.332 30.9146 6.452C30.7946 6.572 30.7106 6.668 30.6626 6.74C30.5906 6.836 30.5066 6.968 30.4106 7.136C30.3146 7.28 30.2186 7.424 30.1226 7.568C30.0506 7.712 29.9666 7.856 29.8706 8C29.7746 8.12 29.6786 8.228 29.5826 8.324C29.5106 8.396 29.4386 8.432 29.3666 8.432C29.3186 8.432 29.2706 8.42 29.2226 8.396C29.1986 8.372 29.1746 8.336 29.1506 8.288V8.252C29.1506 8.084 29.2346 7.832 29.4026 7.496C29.5706 7.136 29.6546 6.836 29.6546 6.596C29.6546 6.236 29.4986 5.84 29.1866 5.408C28.4426 4.376 26.8946 3.752 24.5426 3.536C24.2546 3.512 23.9426 3.5 23.6066 3.5C23.0066 3.5 22.3586 3.536 21.6626 3.608C20.9906 3.68 20.2346 3.824 19.3946 4.04C18.5786 4.232 17.7506 4.484 16.9106 4.796C16.0946 5.084 15.2546 5.48 14.3906 5.984C13.5266 6.464 12.7226 7.016 11.9786 7.64C11.2346 8.24 10.5146 8.984 9.81859 9.872C9.12259 10.736 8.53459 11.672 8.05459 12.68C7.09459 14.696 6.61459 16.64 6.61459 18.512C6.61459 20.864 7.47859 22.784 9.20659 24.272C10.9346 25.736 12.9026 26.468 15.1106 26.468C18.6866 26.468 21.6026 25.712 23.8586 24.2C26.1386 22.664 28.0466 20.288 29.5826 17.072C27.5426 17.192 24.2786 17.252 19.7906 17.252C19.3826 17.252 19.0466 17.132 18.7826 16.892C18.5426 16.628 18.4226 16.34 18.4226 16.028C18.4226 15.716 18.6626 15.44 19.1426 15.2C19.6466 14.96 20.0786 14.84 20.4386 14.84C20.4626 14.84 20.4866 14.84 20.5106 14.84C20.6546 14.84 20.7386 14.888 20.7626 14.984C20.7626 15.008 20.7506 15.032 20.7266 15.056C20.6066 15.2 20.5226 15.32 20.4746 15.416C20.4506 15.512 20.4986 15.584 20.6186 15.632C20.8826 15.632 21.6506 15.656 22.9226 15.704C24.1946 15.728 25.6946 15.752 27.4226 15.776C29.1746 15.776 30.6146 15.776 31.7426 15.776C32.5106 15.776 33.0986 15.776 33.5066 15.776ZM46.0982 15.272C46.5542 15.344 46.7822 15.476 46.7822 15.668C46.7822 15.86 46.6022 16.052 46.2422 16.244C45.8822 16.412 45.5582 16.496 45.2702 16.496C45.2702 19.304 44.5382 21.704 43.0742 23.696C41.6102 25.688 40.1582 26.684 38.7182 26.684C37.3262 26.684 36.6302 25.676 36.6302 23.66C36.6302 23.108 36.6782 22.556 36.7742 22.004C36.8942 21.38 37.1102 20.576 37.4222 19.592C37.7342 18.608 38.1422 17.54 38.6462 16.388C39.1502 15.236 39.7622 14.264 40.4822 13.472C41.2262 12.656 41.9702 12.248 42.7142 12.248H42.9662C42.9662 11.912 43.0622 11.624 43.2542 11.384C43.4462 11.144 43.7102 11.024 44.0462 11.024C44.3822 11.048 44.6822 11.756 44.9462 13.148C45.2102 14.516 45.5942 15.224 46.0982 15.272ZM44.2622 16.208C44.0462 16.088 43.7822 15.668 43.4702 14.948C43.1582 14.204 42.9422 13.832 42.8222 13.832C42.0782 13.832 41.2142 14.936 40.2302 17.144C39.2462 19.328 38.6342 21.056 38.3942 22.328C38.2982 22.88 38.2502 23.384 38.2502 23.84C38.2502 25.016 38.5862 25.604 39.2582 25.604C40.2182 25.604 41.2862 24.632 42.4622 22.688C43.6622 20.72 44.2622 18.56 44.2622 16.208ZM56.2449 3.572C54.9249 6.308 53.5809 9.62 52.2129 13.508C50.8449 17.372 49.8369 20.756 49.1889 23.66C49.1649 23.732 49.1529 23.828 49.1529 23.948C49.1529 24.236 49.2729 24.38 49.5129 24.38C49.6569 24.38 50.0409 24.2 50.6649 23.84C51.3129 23.48 51.7209 23.3 51.8889 23.3C52.0329 23.3 52.1409 23.348 52.2129 23.444C52.2129 23.732 51.6129 24.272 50.4129 25.064C49.2129 25.832 48.3609 26.216 47.8569 26.216C47.4009 26.216 47.1729 26 47.1729 25.568C47.1729 25.328 47.2209 25.076 47.3169 24.812C47.9409 23.108 48.5169 21.416 49.0449 19.736C49.5969 18.056 50.2209 16.064 50.9169 13.76C51.6129 11.432 52.1289 9.716 52.4649 8.612C52.5369 8.396 52.5729 8.18 52.5729 7.964C52.5729 7.868 52.5489 7.784 52.5009 7.712C52.4769 7.616 52.4649 7.532 52.4649 7.46C52.4649 7.388 52.5009 7.244 52.5729 7.028C53.0529 5.516 53.4969 4.508 53.9049 4.004C54.3129 3.5 54.9129 3.248 55.7049 3.248C56.0409 3.248 56.2209 3.356 56.2449 3.572ZM69.6305 2.672C69.7025 2.72 69.7385 2.828 69.7385 2.996C69.7385 3.38 69.5465 4.1 69.1625 5.156C68.8025 6.188 68.2865 7.544 67.6145 9.224C66.9665 10.88 66.4625 12.236 66.1025 13.292C66.1265 13.268 66.1505 13.256 66.1745 13.256C66.2705 13.256 66.3665 13.34 66.4625 13.508C66.5825 13.676 66.6425 13.832 66.6425 13.976C66.6425 14.12 66.5225 14.192 66.2825 14.192C65.9705 14.192 65.8025 14.156 65.7785 14.084C65.2985 15.164 64.6865 16.916 63.9425 19.34C63.2225 21.764 62.8625 23.252 62.8625 23.804C62.8625 24.356 63.0185 24.632 63.3305 24.632C63.6905 24.632 64.1105 24.428 64.5905 24.02C65.0705 23.588 65.4905 23.156 65.8505 22.724C66.2345 22.292 66.4625 22.076 66.5345 22.076C66.6065 22.076 66.6425 22.136 66.6425 22.256C66.6425 22.328 66.6185 22.424 66.5705 22.544C66.5465 22.664 66.5105 22.772 66.4625 22.868C66.4385 22.94 66.4145 22.976 66.3905 22.976C65.8385 23.528 65.0705 24.164 64.0865 24.884C63.1025 25.58 62.3345 25.928 61.7825 25.928C61.3265 25.928 61.0985 25.676 61.0985 25.172C61.0985 23.876 61.5545 21.896 62.4665 19.232C61.4345 20.696 60.1745 22.232 58.6865 23.84C57.2225 25.448 56.0705 26.252 55.2305 26.252C54.7265 26.252 54.4745 25.892 54.4745 25.172C54.4745 24.14 54.8345 22.652 55.5545 20.708C56.2745 18.74 57.1265 16.964 58.1105 15.38C59.1185 13.772 59.9585 12.968 60.6305 12.968H60.7745C60.9425 12.968 61.1345 12.884 61.3505 12.716C61.5905 12.524 61.8425 12.428 62.1065 12.428C62.4665 12.428 62.9705 12.524 63.6185 12.716C64.2905 12.908 64.6505 13.004 64.6985 13.004C64.7225 13.004 64.7345 12.992 64.7345 12.968C66.4625 8.312 67.3505 5.912 67.3985 5.768C67.1345 5.768 67.0025 5.624 67.0025 5.336C67.0025 4.664 67.3625 3.788 68.0825 2.708C68.1785 2.516 68.3705 2.42 68.6585 2.42C68.9705 2.42 69.2945 2.504 69.6305 2.672ZM64.4825 13.796C64.4825 13.532 63.7745 13.4 62.3585 13.4C61.9505 13.4 61.6505 13.424 61.4585 13.472C60.9305 13.616 59.9105 15.068 58.3985 17.828C56.9105 20.588 56.1665 22.604 56.1665 23.876C56.1665 24.26 56.2865 24.452 56.5265 24.452C56.7665 24.452 57.1145 24.26 57.5705 23.876C58.0265 23.492 58.4465 23.084 58.8305 22.652C59.2145 22.22 59.6345 21.752 60.0905 21.248C60.5465 20.72 60.7865 20.432 60.8105 20.384C61.4585 19.664 62.0465 18.824 62.5745 17.864C63.1265 16.88 63.5705 15.968 63.9065 15.128C64.2665 14.288 64.4585 13.844 64.4825 13.796ZM77.2617 14.804C77.4057 15.548 77.4777 16.148 77.4777 16.604C77.4777 17.132 77.2977 17.588 76.9377 17.972C76.5777 18.332 76.1097 18.596 75.5337 18.764C74.9577 18.908 74.4417 19.016 73.9857 19.088C73.5297 19.136 73.0977 19.16 72.6897 19.16C72.4497 19.16 72.1737 19.16 71.8617 19.16C71.5737 19.136 71.4177 19.124 71.3937 19.124C70.6017 21.14 70.2057 22.724 70.2057 23.876C70.2057 24.836 70.5657 25.316 71.2857 25.316C71.7897 25.316 72.3777 25.004 73.0497 24.38C73.7217 23.732 74.3097 23.096 74.8137 22.472C75.3177 21.824 75.6177 21.5 75.7137 21.5C75.8817 21.5 75.9657 21.596 75.9657 21.788C75.9657 22.46 75.3057 23.396 73.9857 24.596C72.6657 25.772 71.6337 26.36 70.8897 26.36C70.2897 26.36 69.7377 26.18 69.2337 25.82C68.7537 25.436 68.5137 24.812 68.5137 23.948C68.5137 23.684 68.5497 23.372 68.6217 23.012C68.7897 22.1 69.0057 21.212 69.2697 20.348C69.5577 19.484 69.7137 18.956 69.7377 18.764C69.3777 18.668 69.1977 18.476 69.1977 18.188C69.1977 17.924 69.4017 17.792 69.8097 17.792H70.0617C71.0217 15.896 71.5737 14.804 71.7177 14.516C72.3897 13.244 73.6737 12.608 75.5697 12.608C76.3857 12.608 76.9497 13.34 77.2617 14.804ZM75.9657 16.532C75.9657 15.932 75.9057 15.416 75.7857 14.984C75.6657 14.552 75.5217 14.252 75.3537 14.084C75.2097 13.916 75.0537 13.832 74.8857 13.832C74.4057 13.832 73.8297 14.348 73.1577 15.38C72.5097 16.412 72.0297 17.324 71.7177 18.116C71.7657 18.116 71.9577 18.128 72.2937 18.152C72.6297 18.176 72.9177 18.188 73.1577 18.188C74.1417 18.188 74.8497 18.08 75.2817 17.864C75.7137 17.648 75.9417 17.204 75.9657 16.532ZM91.1592 12.608C89.9352 14.648 88.7952 16.988 87.7392 19.628C86.6832 22.268 86.1552 24.248 86.1552 25.568C86.1552 26 86.2512 26.216 86.4432 26.216C86.5152 26.216 86.7432 26.096 87.1272 25.856C87.5352 25.616 87.7752 25.496 87.8472 25.496C87.9912 25.496 88.0632 25.568 88.0632 25.712C88.0632 26 87.7992 26.324 87.2712 26.684C86.7432 27.044 86.2152 27.224 85.6872 27.224C84.9912 27.224 84.6432 26.708 84.6432 25.676C84.6432 24.74 84.8352 23.648 85.2192 22.4C85.6032 21.152 86.2032 19.556 87.0192 17.612C87.8352 15.668 88.2432 14.684 88.2432 14.66C88.3632 14.348 88.4232 14.108 88.4232 13.94C88.4232 13.82 88.3872 13.76 88.3152 13.76C88.1952 13.76 87.9312 13.976 87.5232 14.408C86.4912 15.56 85.0152 17.528 83.0952 20.312C81.1752 23.096 80.1912 24.812 80.1432 25.46C80.1192 25.628 79.8912 25.856 79.4592 26.144C79.0272 26.456 78.6672 26.612 78.3792 26.612C78.2112 26.612 78.1152 26.528 78.0912 26.36C78.1392 26.432 78.5832 25.232 79.4232 22.76C80.2872 20.288 80.8992 18.5 81.2592 17.396C81.3552 17.108 81.4032 16.892 81.4032 16.748C81.4032 16.652 81.3792 16.568 81.3312 16.496C81.3072 16.4 81.2952 16.328 81.2952 16.28C81.2952 16.184 81.3312 16.028 81.4032 15.812C81.9552 14.276 82.4232 13.268 82.8072 12.788C83.1912 12.284 83.7792 12.032 84.5712 12.032C84.8832 12.032 85.0632 12.14 85.1112 12.356C83.1432 16.388 81.9672 19.268 81.5832 20.996C85.5432 14.612 88.5792 11.42 90.6912 11.42C91.1712 11.42 91.4112 11.576 91.4112 11.888C91.4112 12.104 91.3272 12.344 91.1592 12.608Z" fill="#FED136"/>
</g>
<defs>
<clipPath id="clip0_0_75">
<rect width="92" height="47" fill="white" transform="translate(0 -6)"/>
</clipPath>
</defs>
</svg>
